# xmcd
#
# Track frame offsets:
#	150
#	12499
#	25059
#	36058
#	51064
#	70498
#	84216
#	100710
#	113039
#	134474
#	145731
#	155735
#	167646
#	183664
#
# Disc length: 2667
#
# Revision: 1
# Processed by: cddbd v1.5.1PL0 Copyright (c) Steve Scherf et al.
# Submitted via: CDex 1.50Beta7
# Normalized: r0:DSETVAR1,TDELIM( - )
#
DISCID=b60a690e
DTITLE=Various Artist - Country Stars CD2
DYEAR=2003
DGENRE=Country
TTITLE0=Johnny Cash - Ring of Fire
TTITLE1=Truck Stop - Der wilde, wilde Westen
TTITLE2=Neal Coty - Right Down Through the Middle of Us
TTITLE3=Dagmar - Tränen wie Feuer
TTITLE4=Jonny Hill - 50.000 Kilometer
TTITLE5=Marty Stuart and Travis Tritt - Honky Tonkin's What I Do Best
TTITLE6=Volker Lechtenbrink - Der Spieler
TTITLE7=Jerry Lee Lewis - There Must Be More To Love Than This
TTITLE8=Chely Wright - Sea of Cowboy Hats
TTITLE9=Loretta Lynn, Conway Twitty - Louisiana Woman, Mississippi Man
TTITLE10=Connie Francis - I'm Moving On
TTITLE11=Willie Nelson - Ol' Blue
TTITLE12=James Last and His Orchestra - Always on My Mind
TTITLE13=Kennie Rogers - Lucille
EXTD=YEAR: 2003
EXTT0=
EXTT1=
EXTT2=
EXTT3=
EXTT4=
EXTT5=
EXTT6=
EXTT7=
EXTT8=
EXTT9=
EXTT10=
EXTT11=
EXTT12=
EXTT13=
PLAYORDER=
